# xmcd CD database file
#
# Track frame offsets:
#	150
#	13487
#	23845
#	35091
#	48706
#	59194
#	69688
#	81920
#	93017
#	106151
#	120026
#	136315
#	152917
#	168205
#	180693
#	190324
#	201085
#	212831
#	224199
#	235543
#	248040
#	258357
#	268306
#	278132
#	291025
#	301561
#	312969
#	323990
#	336144
#
# Disc length: 4627 seconds
#
# Revision: 0
# Processed by: cddbd v1.5.1PL0 Copyright (c) Steve Scherf et al.
# Submitted via: CDex 1.51
#
DISCID=b212111d
DTITLE=Various Artist - Honky Tonk Piano/Bar Room Piano/Rough House Piano
DYEAR=1950
DGENRE=Jazz
TTITLE0=Ray Turner - The Entertainer's Rag
TTITLE1=Lou Busch - Two Dollar Rag
TTITLE2=Marvin Ash - Cannon Ball (Rag)
TTITLE3=Ray Turner - Hungarian Rag
TTITLE4=Marvin Ash - Maple Leaf Rag
TTITLE5=Lou Busch - Kitten On The Keys
TTITLE6=Ray Turner - Jim Jams
TTITLE7=Lou Busch - That Everlovin' Rag
TTITLE8=Marvin Ash - A Bag Of Rags
TTITLE9=Ray Turner - Black and White Rag
TTITLE10=Ray Turner - The Entertainer's Rag (Speed Corrected)
TTITLE11=Ray Turner - Hungarian Rag (Speed Corrected)
TTITLE12=Ray Turner - Jim Jams (Speed Corrected)
TTITLE13=Joe "Fingers" Carr - Carr's Hop
TTITLE14=Joe "Fingers" Carr - Rapscallion Rag
TTITLE15=Joe "Fingers" Carr - Waltz In Ragtime
TTITLE16=Joe "Fingers" Carr - Angel Food Rag
TTITLE17=Joe "Fingers" Carr - Raggin' The Scale
TTITLE18=Joe "Fingers" Carr - Too Much Mustard (Tres Moutarde)
TTITLE19=Joe "Fingers" Carr -  Bar Room Boogie
TTITLE20=Joe "Fingers" Carr - Rigamarole Rag
TTITLE21=Joe "Fingers" Carr - Somebody Stole My Gal
TTITLE22=Joe "Fingers" Carr - The Daughter Of Rosie O'Grady
TTITLE23=Joe "Fingers" Carr - Dardanella
TTITLE24=Joe "Fingers" Carr - 12th Street Rag
TTITLE25=Joe "Fingers" Carr - Lou's Blues
TTITLE26=Joe "Fingers" Carr - Minute Waltz Boogie
TTITLE27=Joe "Fingers" Carr - Narcissus
TTITLE28=Joe "Fingers" Carr - The Darktown Strutter's Ball
EXTD=YEAR: 1950
EXTT0=
EXTT1=
EXTT2=
EXTT3=
EXTT4=
EXTT5=
EXTT6=
EXTT7=
EXTT8=
EXTT9=
EXTT10=
EXTT11=
EXTT12=
EXTT13=
EXTT14=
EXTT15=
EXTT16=
EXTT17=
EXTT18=
EXTT19=
EXTT20=
EXTT21=
EXTT22=
EXTT23=
EXTT24=
EXTT25=
EXTT26=
EXTT27=
EXTT28=
PLAYORDER=
